<svg id="Layer_1" data-name="Layer 1" xmlns="http://www.w3.org/2000/svg" xmlns:xlink="http://www.w3.org/1999/xlink" viewBox="0 0 225 125"><defs><style>.cls-1{fill:none;}.cls-2{fill:#c2c2c3;}.cls-3{fill:#fff;}.cls-4{fill:#74bf44;}.cls-5{fill:#70bcc1;}.cls-6{fill:#399fb8;}.cls-7{fill:#dcddde;}.cls-8{fill:#f6df4e;}.cls-9{clip-path:url(#clip-path);}.cls-10{fill:#13415e;}</style><clipPath id="clip-path"><path class="cls-1" d="M185.42,41.34L145.07,21.48l-9.55-4.7L104.94,1.72a5.83,5.83,0,0,0-7.78,2.65L72.44,54.57a5.83,5.83,0,0,0,2.65,7.78l40.13,19.76L155.57,102a5.82,5.82,0,0,0,7.78-2.65l24.72-50.2A5.82,5.82,0,0,0,185.42,41.34Z"/></clipPath></defs><title>pay bill</title><path class="cls-2" d="M185.42,41.34L145.07,21.48l-9.55-4.7L104.94,1.72a5.83,5.83,0,0,0-7.78,2.65L72.44,54.57a5.83,5.83,0,0,0,2.65,7.78l40.13,19.76L155.57,102a5.82,5.82,0,0,0,7.78-2.65l24.72-50.2A5.82,5.82,0,0,0,185.42,41.34Z"/><rect class="cls-3" x="121.13" y="23.77" width="12.87" height="58.76" transform="translate(24.09 144.76) rotate(-64.14)"/><rect class="cls-4" x="144.55" y="61.47" width="4.31" height="34.47" transform="translate(11.89 176.37) rotate(-64.14)"/><rect class="cls-4" x="140.84" y="68.7" width="4.31" height="34.47" transform="translate(3.29 177.12) rotate(-64.14)"/><path class="cls-5" d="M145,76.9a7.82,7.82,0,1,0-5,10.22A10.57,10.57,0,0,1,145,76.9Z"/><path class="cls-6" d="M141.1,57.18H51.4A5.83,5.83,0,0,0,45.59,63v56a5.83,5.83,0,0,0,5.81,5.81h89.7a5.83,5.83,0,0,0,5.81-5.81V63A5.83,5.83,0,0,0,141.1,57.18Z"/><rect class="cls-3" x="54.62" y="65.73" width="83.15" height="6.84"/><path class="cls-7" d="M58.77,79.59H74.13a4.28,4.28,0,0,1,4.28,4.28V95.3a4.29,4.29,0,0,1-4.29,4.29H58.77a4.29,4.29,0,0,1-4.29-4.29V83.87A4.28,4.28,0,0,1,58.77,79.59Z"/><path class="cls-8" d="M123.09,105.28a7.82,7.82,0,1,0,0,11.39A10.57,10.57,0,0,1,123.09,105.28Z"/><path class="cls-3" d="M132.08,103.15a7.81,7.81,0,0,0-5.35,2.13,8.1,8.1,0,0,0-1,1.11,7.82,7.82,0,0,0-.84,1.46,7.76,7.76,0,0,0,0,6.24,7.84,7.84,0,0,0,.84,1.46,7.83,7.83,0,0,0,6.32,3.23A7.82,7.82,0,0,0,132.08,103.15Z"/><g class="cls-9"><rect class="cls-10" x="128.59" y="-56.66" width="15.07" height="183.28" transform="translate(45.26 142.21) rotate(-64.14)"/></g></svg>