<?xml version="1.0"?>
<svg xmlns="http://www.w3.org/2000/svg" xmlns:xlink="http://www.w3.org/1999/xlink" version="1.1" id="Layer_1" x="0px" y="0px" viewBox="0 0 512 512" style="enable-background:new 0 0 512 512;" xml:space="preserve" width="512px" height="512px" class=""><g><path style="fill:#FF9848" d="M499.2,64H12.8v384h486.4V64z" data-original="#BDC4D0" class="" data-old_color="#FF9949"/><g>
	<path style="fill:#802D11" d="M499.2,51.2H12.8C5.734,51.2,0,56.934,0,64v384c0,7.066,5.734,12.8,12.8,12.8h486.4   c7.066,0,12.8-5.734,12.8-12.8V64C512,56.934,506.266,51.2,499.2,51.2z M486.4,435.2H25.6V76.8h460.8V435.2z" data-original="#573A32" class="active-path" data-old_color="#822E11"/>
	<path style="fill:#802D11" d="M56.422,125.525l192,140.8c2.261,1.647,4.915,2.475,7.578,2.475c2.662,0,5.316-0.828,7.578-2.475   l192-140.8c5.7-4.173,6.929-12.203,2.748-17.903c-4.19-5.726-12.211-6.946-17.903-2.748L256,240.128L71.578,104.875   c-5.726-4.173-13.722-2.978-17.903,2.748C49.502,113.323,50.722,121.353,56.422,125.525z" data-original="#573A32" class="active-path" data-old_color="#822E11"/>
</g></g> </svg>
